PathFileType	4	(X/Y/Z)	 2.2Hz3min.trc
DataRate	CameraRate	NumFrames	NumMarkers	Units	OrigDataRate	OrigDataStartFrame	OrigNumFrames
200	200	11	35	m	200	501	1000
Frame#	Time	C7			LSH			RSH			MAN			RASI			LASI			HIPR			HIPL			RPSI			LPSI			COX			RTHI1			RTHI2			RTHI3			RTHI4			RSHA1			RSHA2			RSHA3			RSHA4			RHEEL			RMET5			RMET1			RTOE			LTHI1			LTHI2			LTHI3			LTHI4			LSHA1			LSHA2			LSHA3			LSHA4			LHEEL			LMET5			LMET1			LTOE			
		X1	Y1	Z1	X2	Y2	Z2	X3	Y3	Z3	X4	Y4	Z4	X5	Y5	Z5	X6	Y6	Z6	X7	Y7	Z7	X8	Y8	Z8	X9	Y9	Z9	X10	Y10	Z10	X11	Y11	Z11	X12	Y12	Z12	X13	Y13	Z13	X14	Y14	Z14	X15	Y15	Z15	X16	Y16	Z16	X17	Y17	Z17	X18	Y18	Z18	X19	Y19	Z19	X20	Y20	Z20	X21	Y21	Z21	X22	Y22	Z22	X23	Y23	Z23	X24	Y24	Z24	X25	Y25	Z25	X26	Y26	Z26	X27	Y27	Z27	X28	Y28	Z28	X29	Y29	Z29	X30	Y30	Z30	X31	Y31	Z31	X32	Y32	Z32	X33	Y33	Z33	X34	Y34	Z34	X35	Y35	Z35	
501	2.5050	-0.273153	1.459930	-0.563686	-0.203580	1.449842	-0.737997	-0.205503	1.431779	-0.394353	-0.148460	1.416360	-0.567756	-0.115471	1.014620	-0.462638	-0.117361	1.018409	-0.675889	-0.181292	1.059902	-0.425081	-0.167094	1.078006	-0.706203	-0.277947	1.056416	-0.514718	-0.276355	1.058579	-0.620711	-0.280267	1.065533	-0.570075	-0.231879	0.815262	-0.403897	-0.212526	0.758836	-0.398952	-0.152054	0.776483	-0.384542	-0.163722	0.837050	-0.386602	-0.234947	0.409034	-0.383594	-0.244852	0.367375	-0.389352	-0.184799	0.359615	-0.387528	-0.178636	0.399627	-0.386575	-0.308052	0.153742	-0.435005	-0.196069	0.044359	-0.390748	-0.164792	0.044198	-0.463111	-0.145725	0.033270	-0.464091	-0.213957	0.802377	-0.752286	-0.187575	0.746765	-0.753293	-0.126563	0.769291	-0.748951	-0.145628	0.825977	-0.748191	-0.283302	0.390072	-0.752998	-0.298895	0.352638	-0.750161	-0.238845	0.334428	-0.754048	-0.230603	0.377614	-0.756344	-0.371051	0.157415	-0.709982	-0.255097	0.057446	-0.760559	-0.224502	0.054798	-0.694547	-0.204864	0.044165	-0.698383	
502	2.5100	-0.272944	1.462917	-0.563926	-0.203162	1.453196	-0.737995	-0.205342	1.435103	-0.394772	-0.148427	1.419590	-0.567914	-0.115673	1.017474	-0.463049	-0.117507	1.021297	-0.676184	-0.181423	1.063002	-0.425437	-0.167281	1.081036	-0.706545	-0.277977	1.059811	-0.515164	-0.276373	1.061965	-0.621129	-0.280306	1.068924	-0.570488	-0.232770	0.818442	-0.404895	-0.213604	0.761981	-0.399791	-0.153256	0.779462	-0.384657	-0.164745	0.840072	-0.386781	-0.235314	0.411470	-0.384036	-0.244916	0.369725	-0.389773	-0.184829	0.362348	-0.387566	-0.178933	0.402412	-0.386700	-0.306831	0.155717	-0.434773	-0.194367	0.047128	-0.390193	-0.162770	0.046606	-0.461967	-0.143714	0.035463	-0.462352	-0.214829	0.805331	-0.752171	-0.188556	0.749675	-0.753451	-0.127455	0.772105	-0.749781	-0.146415	0.828820	-0.748836	-0.283041	0.392432	-0.753371	-0.298449	0.354933	-0.750553	-0.238310	0.337020	-0.754446	-0.230285	0.380242	-0.756717	-0.369498	0.158709	-0.710154	-0.252492	0.060508	-0.762097	-0.221276	0.057924	-0.696364	-0.201537	0.047450	-0.700375	
503	2.5150	-0.272740	1.465633	-0.564173	-0.202782	1.456239	-0.738032	-0.205162	1.438094	-0.395141	-0.148449	1.422507	-0.568076	-0.115892	1.020074	-0.463466	-0.117682	1.023924	-0.676526	-0.181523	1.065826	-0.425760	-0.167547	1.083739	-0.706942	-0.278063	1.062919	-0.515561	-0.276435	1.065071	-0.621509	-0.280389	1.072027	-0.570862	-0.233594	0.821334	-0.405904	-0.214606	0.764852	-0.400643	-0.154368	0.782172	-0.384838	-0.165706	0.842827	-0.387018	-0.235560	0.413745	-0.384406	-0.244940	0.371939	-0.390132	-0.184824	0.364845	-0.387715	-0.179131	0.404945	-0.386856	-0.305964	0.157432	-0.434790	-0.192682	0.050120	-0.389438	-0.160577	0.049361	-0.460634	-0.141438	0.038133	-0.460489	-0.215665	0.807859	-0.752016	-0.189466	0.752177	-0.753539	-0.128295	0.774548	-0.750545	-0.147185	0.831282	-0.749450	-0.282740	0.394663	-0.753708	-0.297990	0.357106	-0.750905	-0.237776	0.339455	-0.754809	-0.229937	0.382704	-0.757057	-0.368038	0.159838	-0.710284	-0.249902	0.063607	-0.763677	-0.218104	0.061009	-0.698195	-0.198256	0.050701	-0.702383	
504	2.5200	-0.272547	1.468075	-0.564430	-0.202440	1.458977	-0.738114	-0.204979	1.440758	-0.395459	-0.148446	1.425116	-0.568250	-0.116128	1.022427	-0.463883	-0.117883	1.026297	-0.676907	-0.181597	1.068382	-0.426059	-0.167879	1.086123	-0.707385	-0.278194	1.065732	-0.515910	-0.276534	1.067905	-0.621857	-0.280513	1.074847	-0.571196	-0.234341	0.823939	-0.406893	-0.215513	0.767434	-0.401487	-0.155383	0.784619	-0.385079	-0.166586	0.845318	-0.387312	-0.235685	0.415880	-0.384688	-0.244918	0.374033	-0.390427	-0.184790	0.367121	-0.387952	-0.179237	0.407248	-0.387011	-0.305398	0.158905	-0.435098	-0.191064	0.053287	-0.388506	-0.158272	0.052372	-0.459163	-0.138979	0.041166	-0.458588	-0.216450	0.809991	-0.751849	-0.190295	0.754292	-0.753573	-0.129075	0.776641	-0.751234	-0.147929	0.833385	-0.750032	-0.282424	0.396744	-0.753999	-0.297532	0.359125	-0.751210	-0.237249	0.341720	-0.755151	-0.229580	0.384990	-0.757367	-0.366655	0.160835	-0.710424	-0.247372	0.066667	-0.765240	-0.215038	0.063999	-0.700000	-0.195082	0.053857	-0.704368	
505	2.5250	-0.272367	1.470264	-0.564698	-0.202123	1.461419	-0.738244	-0.204798	1.443101	-0.395726	-0.148369	1.427426	-0.568434	-0.116381	1.024547	-0.464296	-0.118107	1.028425	-0.677312	-0.181661	1.070664	-0.426335	-0.168258	1.088203	-0.707859	-0.278364	1.068253	-0.516217	-0.276667	1.070458	-0.622173	-0.280754	1.077414	-0.571539	-0.235014	0.826249	-0.407824	-0.216327	0.769723	-0.402269	-0.156285	0.786802	-0.385368	-0.167375	0.847541	-0.387655	-0.235700	0.417879	-0.384971	-0.244861	0.376008	-0.390671	-0.184724	0.369193	-0.388281	-0.179249	0.409324	-0.387270	-0.305077	0.160148	-0.435695	-0.189550	0.056568	-0.387451	-0.155931	0.055530	-0.457629	-0.136450	0.044430	-0.456712	-0.217180	0.811755	-0.751703	-0.191036	0.756049	-0.753575	-0.129786	0.778410	-0.751846	-0.148638	0.835159	-0.750577	-0.282111	0.398654	-0.754243	-0.297077	0.360969	-0.751476	-0.236732	0.343807	-0.755476	-0.229230	0.387098	-0.757653	-0.365347	0.161695	-0.710589	-0.244937	0.069617	-0.766736	-0.212111	0.066859	-0.701729	-0.192052	0.056875	-0.706275	
506	2.5300	-0.272197	1.472209	-0.564975	-0.201822	1.463566	-0.738426	-0.204638	1.445130	-0.395943	-0.148238	1.429446	-0.568627	-0.116646	1.026434	-0.464693	-0.118350	1.030309	-0.677730	-0.181721	1.072683	-0.426599	-0.168666	1.089990	-0.708348	-0.278565	1.070474	-0.516484	-0.276831	1.072717	-0.622461	-0.281040	1.079699	-0.571863	-0.235613	0.828268	-0.408669	-0.217050	0.771722	-0.402951	-0.157064	0.788733	-0.385690	-0.168069	0.849507	-0.388041	-0.235631	0.419741	-0.385282	-0.244776	0.377858	-0.390920	-0.184632	0.371084	-0.388704	-0.179182	0.411214	-0.387657	-0.304934	0.161198	-0.436546	-0.188174	0.059901	-0.386338	-0.153649	0.058720	-0.456082	-0.133962	0.047780	-0.454895	-0.217852	0.813188	-0.751598	-0.191689	0.757488	-0.753563	-0.130425	0.779895	-0.752383	-0.149310	0.836633	-0.751079	-0.281805	0.400380	-0.754442	-0.296631	0.362618	-0.751703	-0.236229	0.345700	-0.755786	-0.228886	0.389011	-0.757921	-0.364117	0.162424	-0.710792	-0.242611	0.072410	-0.768127	-0.209351	0.069566	-0.703334	-0.189187	0.059738	-0.708051	
507	2.5350	-0.272032	1.473928	-0.565259	-0.201524	1.465430	-0.738657	-0.204507	1.446854	-0.396115	-0.148063	1.431190	-0.568831	-0.116924	1.028097	-0.465075	-0.118611	1.031949	-0.678149	-0.181795	1.074436	-0.426852	-0.169086	1.091504	-0.708840	-0.278791	1.072403	-0.516720	-0.277030	1.074673	-0.622726	-0.281364	1.081702	-0.572175	-0.236136	0.829999	-0.409403	-0.217682	0.773435	-0.403507	-0.157715	0.790422	-0.386034	-0.168667	0.851213	-0.388456	-0.235503	0.421460	-0.385650	-0.244670	0.379574	-0.391239	-0.184526	0.372795	-0.389206	-0.179059	0.412907	-0.388192	-0.304925	0.162081	-0.437603	-0.186968	0.063213	-0.385233	-0.151501	0.061844	-0.454573	-0.131607	0.051084	-0.453149	-0.218467	0.814326	-0.751550	-0.192251	0.758643	-0.753556	-0.130994	0.781120	-0.752832	-0.149940	0.837846	-0.751530	-0.281500	0.401909	-0.754607	-0.296192	0.364072	-0.751893	-0.235737	0.347385	-0.756086	-0.228546	0.390712	-0.758170	-0.362973	0.163005	-0.711029	-0.240403	0.075025	-0.769390	-0.206762	0.072109	-0.704774	-0.186492	0.062424	-0.709645	
508	2.5400	-0.271877	1.475428	-0.565550	-0.201248	1.467016	-0.738935	-0.204410	1.448283	-0.396250	-0.147848	1.432665	-0.569046	-0.117213	1.029534	-0.465441	-0.118890	1.033350	-0.678564	-0.181887	1.075939	-0.427105	-0.169502	1.092765	-0.709319	-0.279040	1.074042	-0.516935	-0.277265	1.076321	-0.622976	-0.281724	1.083418	-0.572480	-0.236583	0.831443	-0.410008	-0.218190	0.774868	-0.403957	-0.158232	0.791874	-0.386390	-0.169169	0.852677	-0.388885	-0.235335	0.423011	-0.386099	-0.244562	0.381149	-0.391619	-0.184413	0.374326	-0.389773	-0.178900	0.414421	-0.388866	-0.305037	0.162818	-0.438801	-0.185945	0.066422	-0.384208	-0.149542	0.064833	-0.453150	-0.129453	0.054260	-0.451477	-0.219018	0.815213	-0.751567	-0.192728	0.759556	-0.753571	-0.131489	0.782128	-0.753203	-0.150522	0.838832	-0.751929	-0.281181	0.403239	-0.754740	-0.295750	0.365335	-0.752050	-0.235249	0.348848	-0.756383	-0.228196	0.392197	-0.758409	-0.361922	0.163438	-0.711296	-0.238303	0.077436	-0.770501	-0.204362	0.074461	-0.706019	-0.183982	0.064918	-0.711017	
509	2.5450	-0.271722	1.476719	-0.565846	-0.200993	1.468332	-0.739249	-0.204344	1.449431	-0.396355	-0.147598	1.433890	-0.569272	-0.117512	1.030745	-0.465790	-0.119187	1.034505	-0.678969	-0.182018	1.077197	-0.427356	-0.169901	1.093786	-0.709772	-0.279313	1.075395	-0.517140	-0.277538	1.077647	-0.623212	-0.282114	1.084838	-0.572783	-0.236960	0.832607	-0.410472	-0.218588	0.776039	-0.404284	-0.158611	0.793097	-0.386751	-0.169574	0.853898	-0.389313	-0.235147	0.424378	-0.386645	-0.244459	0.382552	-0.392071	-0.184296	0.375674	-0.390396	-0.178716	0.415754	-0.389658	-0.305259	0.163425	-0.440091	-0.185101	0.069469	-0.383324	-0.147814	0.067643	-0.451849	-0.127545	0.057259	-0.449881	-0.219508	0.815875	-0.751654	-0.193120	0.760256	-0.753621	-0.131912	0.782941	-0.753499	-0.151051	0.839616	-0.752267	-0.280831	0.404359	-0.754844	-0.295295	0.366410	-0.752182	-0.234760	0.350083	-0.756671	-0.227820	0.393453	-0.758641	-0.360965	0.163713	-0.711593	-0.236307	0.079630	-0.771448	-0.202149	0.076615	-0.707053	-0.181652	0.067211	-0.712147	
510	2.5500	-0.271572	1.477802	-0.566146	-0.200758	1.469384	-0.739593	-0.204318	1.450303	-0.396439	-0.147308	1.434873	-0.569504	-0.117818	1.031726	-0.466118	-0.119497	1.035416	-0.679359	-0.182183	1.078224	-0.427615	-0.170278	1.094577	-0.710191	-0.279611	1.076458	-0.517344	-0.277847	1.078656	-0.623445	-0.282379	1.085888	-0.573007	-0.237265	0.833495	-0.410787	-0.218846	0.776953	-0.404532	-0.158852	0.794108	-0.387114	-0.169887	0.854895	-0.389733	-0.234958	0.425552	-0.387206	-0.244354	0.383772	-0.392619	-0.184182	0.376819	-0.391057	-0.178532	0.416882	-0.390442	-0.305581	0.163920	-0.441430	-0.184430	0.072298	-0.382618	-0.146339	0.070238	-0.450698	-0.125906	0.060028	-0.448396	-0.219931	0.816341	-0.751797	-0.193430	0.760770	-0.753706	-0.132261	0.783581	-0.753718	-0.151523	0.840218	-0.752542	-0.280432	0.405278	-0.754922	-0.294820	0.367291	-0.752281	-0.234266	0.351083	-0.756944	-0.227402	0.394476	-0.758862	-0.360098	0.163834	-0.711919	-0.234411	0.081587	-0.772220	-0.200116	0.078559	-0.707868	-0.179498	0.069290	-0.713027	
511	2.5550	-0.271423	1.478675	-0.566449	-0.200542	1.470181	-0.739957	-0.204329	1.450906	-0.396511	-0.146990	1.435627	-0.569743	-0.118131	1.032485	-0.466428	-0.119819	1.036080	-0.679737	-0.182386	1.079016	-0.427883	-0.170628	1.095147	-0.710568	-0.279935	1.077241	-0.517559	-0.278192	1.079350	-0.623676	-0.282650	1.086631	-0.573223	-0.237494	0.834120	-0.410961	-0.218961	0.777624	-0.404711	-0.158956	0.794904	-0.387485	-0.170108	0.855658	-0.390129	-0.234771	0.426522	-0.387808	-0.244251	0.384772	-0.393247	-0.184086	0.377733	-0.391741	-0.178355	0.417776	-0.391213	-0.306005	0.164297	-0.442784	-0.183921	0.074858	-0.382117	-0.145116	0.072599	-0.449755	-0.124538	0.062546	-0.447100	-0.220279	0.816636	-0.751992	-0.193658	0.761118	-0.753831	-0.132534	0.784060	-0.753865	-0.151926	0.840658	-0.752760	-0.279973	0.405988	-0.754972	-0.294314	0.367983	-0.752353	-0.233753	0.351845	-0.757199	-0.226937	0.395254	-0.759058	-0.359316	0.163801	-0.712265	-0.232622	0.083284	-0.772816	-0.198258	0.080280	-0.708468	-0.177521	0.071140	-0.713657	
